<svg width="1400" height="100" viewBox="0 0 1400 100" fill="none" xmlns="http://www.w3.org/2000/svg">
<path d="M627.316 77V22.4545H646.758C650.984 22.4545 654.491 23.1825 657.278 24.6385C660.084 26.0945 662.179 28.1097 663.564 30.6843C664.949 33.2411 665.641 36.1974 665.641 39.5533C665.641 42.8913 664.94 45.8299 663.537 48.369C662.152 50.8903 660.057 52.8523 657.252 54.255C654.464 55.6577 650.957 56.359 646.732 56.359H632.003V49.2745H645.986C648.649 49.2745 650.815 48.8928 652.484 48.1293C654.171 47.3658 655.405 46.256 656.187 44.8001C656.968 43.3441 657.358 41.5952 657.358 39.5533C657.358 37.4936 656.959 35.7092 656.16 34.1999C655.379 32.6907 654.145 31.5366 652.458 30.7376C650.789 29.9208 648.596 29.5124 645.879 29.5124H635.546V77H627.316ZM654.242 52.3906L667.719 77H658.344L645.134 52.3906H654.242ZM675.656 77V22.4545H709.853V29.5391H683.885V46.1584H708.069V53.2163H683.885V69.9155H710.173V77H675.656ZM766.15 40.1925H757.84C757.52 38.4169 756.926 36.8544 756.056 35.505C755.186 34.1555 754.12 33.0103 752.86 32.0692C751.599 31.1282 750.187 30.418 748.625 29.9386C747.08 29.4592 745.438 29.2195 743.698 29.2195C740.555 29.2195 737.741 30.0096 735.255 31.5898C732.787 33.1701 730.834 35.4872 729.395 38.5412C727.975 41.5952 727.265 45.3239 727.265 49.7273C727.265 54.1662 727.975 57.9126 729.395 60.9666C730.834 64.0206 732.796 66.3288 735.281 67.8913C737.767 69.4538 740.564 70.2351 743.671 70.2351C745.393 70.2351 747.027 70.0043 748.572 69.5426C750.134 69.0632 751.546 68.3619 752.806 67.4386C754.067 66.5153 755.132 65.3878 756.002 64.0561C756.89 62.7067 757.503 61.1619 757.84 59.4219L766.15 59.4485C765.706 62.1296 764.845 64.5977 763.566 66.8526C762.306 69.0898 760.681 71.0252 758.692 72.6587C756.721 74.2745 754.466 75.5263 751.927 76.4141C749.388 77.3018 746.618 77.7457 743.618 77.7457C738.895 77.7457 734.687 76.6271 730.993 74.3899C727.3 72.1349 724.388 68.9123 722.258 64.7219C720.145 60.5316 719.088 55.5334 719.088 49.7273C719.088 43.9034 720.154 38.9052 722.284 34.7326C724.415 30.5423 727.327 27.3285 731.02 25.0913C734.713 22.8363 738.912 21.7088 743.618 21.7088C746.512 21.7088 749.211 22.1261 751.714 22.9606C754.236 23.7773 756.499 24.9847 758.506 26.5827C760.512 28.163 762.172 30.0984 763.486 32.3888C764.8 34.6616 765.688 37.2628 766.15 40.1925ZM823.378 49.7273C823.378 55.5511 822.313 60.5582 820.182 64.7486C818.052 68.9212 815.131 72.1349 811.42 74.3899C807.727 76.6271 803.528 77.7457 798.822 77.7457C794.099 77.7457 789.882 76.6271 786.171 74.3899C782.478 72.1349 779.566 68.9123 777.436 64.7219C775.305 60.5316 774.24 55.5334 774.24 49.7273C774.24 43.9034 775.305 38.9052 777.436 34.7326C779.566 30.5423 782.478 27.3285 786.171 25.0913C789.882 22.8363 794.099 21.7088 798.822 21.7088C803.528 21.7088 807.727 22.8363 811.42 25.0913C815.131 27.3285 818.052 30.5423 820.182 34.7326C822.313 38.9052 823.378 43.9034 823.378 49.7273ZM815.229 49.7273C815.229 45.2884 814.51 41.5508 813.071 38.5146C811.651 35.4606 809.698 33.1523 807.212 31.5898C804.744 30.0096 801.947 29.2195 798.822 29.2195C795.68 29.2195 792.874 30.0096 790.406 31.5898C787.938 33.1523 785.985 35.4606 784.547 38.5146C783.126 41.5508 782.416 45.2884 782.416 49.7273C782.416 54.1662 783.126 57.9126 784.547 60.9666C785.985 64.0028 787.938 66.3111 790.406 67.8913C792.874 69.4538 795.68 70.2351 798.822 70.2351C801.947 70.2351 804.744 69.4538 807.212 67.8913C809.698 66.3111 811.651 64.0028 813.071 60.9666C814.51 57.9126 815.229 54.1662 815.229 49.7273ZM877.664 22.4545V77H870.1L842.375 36.9964H841.869V77H833.639V22.4545H841.256L869.008 62.5114H869.514V22.4545H877.664Z" fill="#777777"/>
<path d="M513 89V29H573V89H513Z" stroke="#777777" stroke-width="3.5"/>
<path d="M531 72V12H591V72H531Z" stroke="#777777" stroke-width="3.5"/>
<path d="M522 80V20H582V80H522Z" stroke="#777777" stroke-width="3.5"/>
</svg>
